<?xml version="1.0" encoding="utf-8"?>
<!-- Generator: Adobe Illustrator 27.5.0, SVG Export Plug-In . SVG Version: 6.00 Build 0)  -->
<svg version="1.1" id="レイヤー_1" xmlns="http://www.w3.org/2000/svg" xmlns:xlink="http://www.w3.org/1999/xlink" x="0px"
	 y="0px" viewBox="0 0 600 600" style="enable-background:new 0 0 600 600;" xml:space="preserve">
<style type="text/css">
	.st0{fill:#C5A6B5;stroke:#C5A6B5;stroke-miterlimit:10;}
	.st1{fill:#FFFFFF;}
	.st2{font-family:'HiraMinPro-W3-83pv-RKSJ-H';}
	.st3{font-size:175.118px;}
</style>
<path class="st0" d="M52.5,232.5l53,184c32,29,128,52,128,52c-44,7-126-35-126-35c0,31,22.84,35.79,22.84,35.79
	C240.5,532.5,420.5,490.5,420.5,490.5c83-22,69-58,69-58l55.29-200l-5.29-6c-56,77-107,71-107,71c-85-3-115-128-115-128h-35.35
	c-47.65,140-116.85,130.33-116.85,130.33C96.5,291.5,60.5,227.5,60.5,227.5L52.5,232.5z"/>
<path class="st0" d="M136.5,274.5"/>
<path class="st0" d="M202.5,279.5c0,0-37,20-66,0c0,0,29-45,29-78h8C173.5,234.5,202.5,279.5,202.5,279.5"/>
<path class="st0" d="M461.87,279.5c0,0-37,20-66,0c0,0,29-45,29-78h8C432.87,234.5,461.87,279.5,461.87,279.5"/>
<circle class="st0" cx="169.5" cy="178.5" r="23"/>
<circle class="st0" cx="428.5" cy="178.5" r="23"/>
<circle class="st0" cx="552.5" cy="210.5" r="23"/>
<circle class="st0" cx="45.5" cy="210.5" r="23"/>
<circle class="st0" cx="299" cy="146" r="32.5"/>
<text transform="matrix(1 0 0 1 253.1455 429.9902)" class="st1 st2 st3">2</text>
</svg>
